<?xml version="1.0" encoding="UTF-8" standalone="no"?><!DOCTYPE svg PUBLIC "-//W3C//DTD SVG 1.1//EN" "http://www.w3.org/Graphics/SVG/1.1/DTD/svg11.dtd"><svg width="100%" height="100%" viewBox="0 0 266 56" version="1.1" xmlns="http://www.w3.org/2000/svg" xmlns:xlink="http://www.w3.org/1999/xlink" xml:space="preserve" style="fill-rule:evenodd;clip-rule:evenodd;stroke-linejoin:round;stroke-miterlimit:1.41421;"><g><path d="M26.21,55.351l-3.825,-17.256l-15.792,0l-3.825,17.256l-2.768,0l12.21,-55.025l4.558,0l12.21,55.025l-2.768,0Zm-19.047,-19.942l14.652,0l-7.326,-32.886l-7.326,32.886Z" style="fill-rule:nonzero;"/><path d="M47.537,52.665l17.419,0l0,2.686l-17.419,0l-2.686,0l0,-55.025l2.686,0l0,52.339Z" style="fill-rule:nonzero;"/><path d="M90.76,0.326c1.628,0 3.134,0.312 4.518,0.936c1.383,0.624 2.604,1.465 3.663,2.523c1.058,1.058 1.885,2.293 2.482,3.704c0.597,1.411 0.896,2.903 0.896,4.477l0,11.233c0,1.574 -0.285,3.039 -0.855,4.395c-0.57,1.357 -1.357,2.551 -2.361,3.582c-1.004,1.031 -2.17,1.872 -3.5,2.523c-1.329,0.651 -2.754,1.031 -4.273,1.14l-0.407,0l-0.326,0l-7.896,0l0,20.512l-2.686,0l0,-55.025l10.745,0Zm8.872,11.64c0,-1.194 -0.244,-2.334 -0.732,-3.419c-0.489,-1.085 -1.14,-2.035 -1.954,-2.849c-0.814,-0.814 -1.763,-1.465 -2.849,-1.954c-1.085,-0.488 -2.252,-0.732 -3.5,-0.732l-7.896,0l0,29.141l8.059,0c1.248,0 2.415,-0.245 3.5,-0.733c1.085,-0.488 2.021,-1.139 2.808,-1.953c0.787,-0.814 1.411,-1.751 1.873,-2.809c0.461,-1.058 0.691,-2.211 0.691,-3.459l0,-11.233Z" style="fill-rule:nonzero;"/><path d="M129.994,32.153l-6.674,0l0,23.198l-2.687,0l0,-23.198l0,-2.686l0,-26.455l0,-2.686l9.9,0c1.621,0 3.147,0.298 4.579,0.895c1.432,0.597 2.675,1.425 3.729,2.483c1.053,1.058 1.891,2.292 2.512,3.703c0.622,1.411 0.932,2.931 0.932,4.559l0,8.547c0,1.411 -0.244,2.74 -0.732,3.988c-0.489,1.248 -1.167,2.388 -2.035,3.419c-0.868,1.031 -1.872,1.886 -3.012,2.564c-1.139,0.678 -2.388,1.153 -3.744,1.424l9.93,23.443l-2.848,0l-9.85,-23.198Zm-6.674,-2.686l7.244,0c1.248,0 2.415,-0.231 3.5,-0.692c1.085,-0.462 2.035,-1.099 2.849,-1.913c0.814,-0.814 1.465,-1.764 1.954,-2.849c0.488,-1.086 0.732,-2.252 0.732,-3.5l0,-7.082l0,-1.465c0,-1.194 -0.244,-2.334 -0.732,-3.419c-0.489,-1.085 -1.14,-2.035 -1.954,-2.849c-0.814,-0.814 -1.764,-1.465 -2.849,-1.954c-1.085,-0.488 -2.252,-0.732 -3.5,-0.732l-7.244,0l0,26.455Z" style="fill-rule:nonzero;"/><path d="M172.891,55.758c-1.627,0 -3.16,-0.312 -4.599,-0.936c-1.438,-0.624 -2.686,-1.465 -3.744,-2.523c-1.058,-1.058 -1.899,-2.306 -2.523,-3.744c-0.624,-1.438 -0.936,-2.971 -0.936,-4.599l0,-32.153c0,-1.628 0.312,-3.161 0.936,-4.599c0.624,-1.438 1.465,-2.686 2.523,-3.744c1.058,-1.059 2.306,-1.9 3.744,-2.524c1.439,-0.624 2.972,-0.936 4.599,-0.936c1.628,0 3.148,0.312 4.559,0.936c1.411,0.624 2.645,1.465 3.703,2.524c1.059,1.058 1.9,2.306 2.524,3.744c0.624,1.438 0.936,2.971 0.936,4.599l0,32.153c0,1.628 -0.312,3.161 -0.936,4.599c-0.624,1.438 -1.465,2.686 -2.524,3.744c-1.058,1.058 -2.292,1.899 -3.703,2.523c-1.411,0.624 -2.931,0.936 -4.559,0.936Zm0,-53.072c-1.248,0 -2.428,0.245 -3.54,0.734c-1.113,0.489 -2.076,1.142 -2.89,1.957c-0.814,0.815 -1.465,1.766 -1.954,2.853c-0.488,1.087 -0.732,2.256 -0.732,3.506l0,32.204c0,1.251 0.244,2.433 0.732,3.547c0.489,1.115 1.14,2.079 1.954,2.895c0.814,0.815 1.777,1.467 2.89,1.956c1.112,0.49 2.292,0.734 3.54,0.734c1.249,0 2.415,-0.244 3.501,-0.734c1.085,-0.489 2.035,-1.141 2.849,-1.956c0.814,-0.816 1.465,-1.78 1.953,-2.895c0.489,-1.114 0.733,-2.296 0.733,-3.547l0,-32.204c0,-1.25 -0.244,-2.419 -0.733,-3.506c-0.488,-1.087 -1.139,-2.038 -1.953,-2.853c-0.814,-0.815 -1.764,-1.468 -2.849,-1.957c-1.086,-0.489 -2.252,-0.734 -3.501,-0.734Z" style="fill-rule:nonzero;"/><path d="M205.614,52.665l17.419,0l0,2.686l-17.419,0l-2.686,0l0,-55.025l2.686,0l0,52.339Z" style="fill-rule:nonzero;"/><path d="M262.675,55.351l-3.826,-17.256l-15.792,0l-3.825,17.256l-2.768,0l12.21,-55.025l4.558,0l12.21,55.025l-2.767,0Zm-19.048,-19.942l14.652,0l-7.326,-32.886l-7.326,32.886Z" style="fill-rule:nonzero;"/></g></svg>