<?xml version="1.0" encoding="UTF-8" standalone="no"?><!DOCTYPE svg PUBLIC "-//W3C//DTD SVG 1.1//EN" "http://www.w3.org/Graphics/SVG/1.1/DTD/svg11.dtd"><svg width="100%" height="100%" viewBox="0 0 399 56" version="1.1" xmlns="http://www.w3.org/2000/svg" xmlns:xlink="http://www.w3.org/1999/xlink" xml:space="preserve" style="fill-rule:evenodd;clip-rule:evenodd;stroke-linejoin:round;stroke-miterlimit:1.41421;"><g><path d="M11.803,53.072c1.248,0 2.415,-0.244 3.5,-0.732c1.085,-0.489 2.035,-1.14 2.849,-1.954c0.814,-0.814 1.465,-1.777 1.954,-2.89c0.488,-1.112 0.732,-2.292 0.732,-3.541l2.686,0c0,1.628 -0.312,3.161 -0.936,4.6c-0.624,1.438 -1.465,2.686 -2.523,3.744c-1.058,1.058 -2.293,1.899 -3.704,2.523c-1.411,0.624 -2.93,0.936 -4.558,0.936c-1.628,0 -3.161,-0.312 -4.599,-0.936c-1.438,-0.624 -2.686,-1.465 -3.745,-2.523c-1.058,-1.058 -1.899,-2.306 -2.523,-3.744c-0.624,-1.439 -0.936,-2.972 -0.936,-4.6l0,-32.152c0,-1.628 0.312,-3.161 0.936,-4.599c0.624,-1.438 1.465,-2.686 2.523,-3.745c1.059,-1.058 2.307,-1.899 3.745,-2.523c1.438,-0.624 2.971,-0.936 4.599,-0.936c1.628,0 3.147,0.303 4.558,0.909c1.411,0.606 2.646,1.433 3.704,2.482c1.058,1.05 1.899,2.293 2.523,3.731c0.624,1.438 0.936,2.971 0.936,4.599l-2.686,0c0,-1.248 -0.244,-2.414 -0.732,-3.5c-0.489,-1.085 -1.14,-2.035 -1.954,-2.849c-0.814,-0.814 -1.764,-1.465 -2.849,-1.953c-1.085,-0.489 -2.252,-0.733 -3.5,-0.733c-1.248,0 -2.429,0.245 -3.541,0.734c-1.112,0.489 -2.076,1.142 -2.89,1.957c-0.814,0.815 -1.465,1.766 -1.953,2.853c-0.489,1.087 -0.733,2.256 -0.733,3.505l0,32.205c0,1.251 0.244,2.433 0.733,3.547c0.488,1.115 1.139,2.079 1.953,2.895c0.814,0.815 1.778,1.467 2.89,1.956c1.112,0.49 2.293,0.734 3.541,0.734Z" style="fill-rule:nonzero;"/><path d="M43.548,55.758c-1.628,0 -3.161,-0.312 -4.599,-0.936c-1.438,-0.624 -2.686,-1.465 -3.744,-2.523c-1.058,-1.058 -1.899,-2.306 -2.523,-3.744c-0.624,-1.439 -0.936,-2.972 -0.936,-4.6l0,-32.152c0,-1.628 0.312,-3.161 0.936,-4.599c0.624,-1.438 1.465,-2.686 2.523,-3.745c1.058,-1.058 2.306,-1.899 3.744,-2.523c1.438,-0.624 2.971,-0.936 4.599,-0.936c1.628,0 3.148,0.312 4.559,0.936c1.411,0.624 2.645,1.465 3.703,2.523c1.059,1.059 1.9,2.307 2.524,3.745c0.624,1.438 0.936,2.971 0.936,4.599l0,32.152c0,1.628 -0.312,3.161 -0.936,4.6c-0.624,1.438 -1.465,2.686 -2.524,3.744c-1.058,1.058 -2.292,1.899 -3.703,2.523c-1.411,0.624 -2.931,0.936 -4.559,0.936Zm0,-53.072c-1.248,0 -2.428,0.245 -3.54,0.734c-1.113,0.489 -2.076,1.142 -2.89,1.957c-0.814,0.815 -1.465,1.766 -1.954,2.853c-0.488,1.087 -0.732,2.256 -0.732,3.505l0,32.205c0,1.251 0.244,2.433 0.732,3.547c0.489,1.115 1.14,2.079 1.954,2.895c0.814,0.815 1.777,1.467 2.89,1.956c1.112,0.49 2.292,0.734 3.54,0.734c1.249,0 2.415,-0.244 3.501,-0.734c1.085,-0.489 2.035,-1.141 2.849,-1.956c0.814,-0.816 1.465,-1.78 1.953,-2.895c0.489,-1.114 0.733,-2.296 0.733,-3.547l0,-32.205c0,-1.249 -0.244,-2.418 -0.733,-3.505c-0.488,-1.087 -1.139,-2.038 -1.953,-2.853c-0.814,-0.815 -1.764,-1.468 -2.849,-1.957c-1.086,-0.489 -2.252,-0.734 -3.501,-0.734Z" style="fill-rule:nonzero;"/><path d="M83.434,0.326l2.686,0l0,55.025l-2.686,0l-17.257,-47.537l0,47.537l-2.686,0l0,-55.025l2.686,0l17.257,47.537l0,-47.537Z" style="fill-rule:nonzero;"/><path d="M115.749,3.012l-18.721,0l0,20.838l15.384,0l0,2.686l-15.384,0l0,28.815l-2.687,0l0,-55.025l21.408,0l0,2.686Z" style="fill-rule:nonzero;"/><path d="M125.029,52.665l17.419,0l0,2.686l-17.419,0l-2.686,0l0,-55.025l2.686,0l0,52.339Z" style="fill-rule:nonzero;"/><path d="M171.996,55.351l-3.826,-17.256l-15.791,0l-3.826,17.256l-2.767,0l12.209,-55.025l4.559,0l12.21,55.025l-2.768,0Zm-19.047,-19.942l14.652,0l-7.326,-32.886l-7.326,32.886Z" style="fill-rule:nonzero;"/><path d="M201.381,24.338l2.686,0l0,20.513c-0.108,1.519 -0.488,2.944 -1.139,4.273c-0.651,1.33 -1.506,2.483 -2.564,3.46c-1.059,0.977 -2.28,1.75 -3.663,2.32c-1.384,0.569 -2.836,0.854 -4.355,0.854c-1.628,0 -3.161,-0.312 -4.599,-0.936c-1.438,-0.624 -2.686,-1.465 -3.745,-2.523c-1.058,-1.058 -1.899,-2.306 -2.523,-3.744c-0.624,-1.439 -0.936,-2.972 -0.936,-4.6l0,-32.152c0,-1.628 0.312,-3.161 0.936,-4.599c0.624,-1.438 1.465,-2.686 2.523,-3.745c1.059,-1.058 2.307,-1.899 3.745,-2.523c1.438,-0.624 2.971,-0.936 4.599,-0.936c1.628,0 3.147,0.303 4.558,0.909c1.411,0.606 2.646,1.433 3.704,2.482c1.058,1.05 1.899,2.293 2.523,3.731c0.624,1.438 0.936,2.971 0.936,4.599l-2.686,0c0,-1.248 -0.244,-2.414 -0.732,-3.5c-0.489,-1.085 -1.14,-2.035 -1.954,-2.849c-0.814,-0.814 -1.764,-1.465 -2.849,-1.953c-1.085,-0.489 -2.252,-0.733 -3.5,-0.733c-1.248,0 -2.429,0.245 -3.541,0.734c-1.112,0.489 -2.076,1.142 -2.89,1.957c-0.814,0.815 -1.465,1.766 -1.953,2.853c-0.489,1.087 -0.733,2.256 -0.733,3.505l0,32.205c0,1.251 0.244,2.433 0.733,3.547c0.488,1.115 1.139,2.079 1.953,2.895c0.814,0.815 1.778,1.467 2.89,1.956c1.112,0.49 2.293,0.734 3.541,0.734c1.248,0 2.415,-0.244 3.5,-0.732c1.085,-0.489 2.035,-1.14 2.849,-1.954c0.814,-0.814 1.465,-1.777 1.954,-2.89c0.488,-1.112 0.732,-2.292 0.732,-3.541l0,-8.709l0,-8.222l-11.07,0l0,-2.686l11.07,0Z" style="fill-rule:nonzero;"/><path d="M221.649,32.153l-6.674,0l0,23.198l-2.686,0l0,-23.198l0,-2.687l0,-26.454l0,-2.686l9.9,0c1.62,0 3.146,0.298 4.578,0.895c1.433,0.597 2.675,1.424 3.729,2.483c1.053,1.058 1.891,2.292 2.512,3.703c0.622,1.411 0.933,2.931 0.933,4.559l0,8.547c0,1.41 -0.244,2.74 -0.733,3.988c-0.488,1.248 -1.167,2.388 -2.035,3.419c-0.868,1.031 -1.872,1.886 -3.012,2.564c-1.139,0.678 -2.387,1.153 -3.744,1.424l9.931,23.443l-2.849,0l-9.85,-23.198Zm-6.674,-2.687l7.244,0c1.248,0 2.415,-0.23 3.5,-0.691c1.086,-0.462 2.035,-1.099 2.849,-1.913c0.814,-0.814 1.466,-1.764 1.954,-2.849c0.488,-1.086 0.733,-2.252 0.733,-3.5l0,-7.082l0,-1.465c0,-1.194 -0.245,-2.334 -0.733,-3.419c-0.488,-1.085 -1.14,-2.035 -1.954,-2.849c-0.814,-0.814 -1.763,-1.465 -2.849,-1.954c-1.085,-0.488 -2.252,-0.732 -3.5,-0.732l-7.244,0l0,26.454Z" style="fill-rule:nonzero;"/><path d="M267.233,55.351l-3.826,-17.256l-15.791,0l-3.826,17.256l-2.768,0l12.21,-55.025l4.559,0l12.209,55.025l-2.767,0Zm-19.047,-19.942l14.651,0l-7.326,-32.886l-7.325,32.886Z" style="fill-rule:nonzero;"/><path d="M295.56,0.326l0,2.686l-10.989,0l0,52.339l-2.686,0l0,-52.339l-10.989,0l0,-2.686l24.664,0Z" style="fill-rule:nonzero;"/><rect x="301.339" y="0.326" width="2.686" height="55.026" style="fill-rule:nonzero;"/><path d="M324.049,55.758c-1.628,0 -3.161,-0.312 -4.599,-0.936c-1.438,-0.624 -2.686,-1.465 -3.744,-2.523c-1.058,-1.058 -1.899,-2.306 -2.523,-3.744c-0.624,-1.439 -0.936,-2.972 -0.936,-4.6l0,-32.152c0,-1.628 0.312,-3.161 0.936,-4.599c0.624,-1.438 1.465,-2.686 2.523,-3.745c1.058,-1.058 2.306,-1.899 3.744,-2.523c1.438,-0.624 2.971,-0.936 4.599,-0.936c1.628,0 3.148,0.312 4.559,0.936c1.411,0.624 2.645,1.465 3.703,2.523c1.059,1.059 1.9,2.307 2.524,3.745c0.624,1.438 0.936,2.971 0.936,4.599l0,32.152c0,1.628 -0.312,3.161 -0.936,4.6c-0.624,1.438 -1.465,2.686 -2.524,3.744c-1.058,1.058 -2.292,1.899 -3.703,2.523c-1.411,0.624 -2.931,0.936 -4.559,0.936Zm0,-53.072c-1.248,0 -2.428,0.245 -3.54,0.734c-1.113,0.489 -2.076,1.142 -2.89,1.957c-0.814,0.815 -1.465,1.766 -1.954,2.853c-0.488,1.087 -0.732,2.256 -0.732,3.505l0,32.205c0,1.251 0.244,2.433 0.732,3.547c0.489,1.115 1.14,2.079 1.954,2.895c0.814,0.815 1.777,1.467 2.89,1.956c1.112,0.49 2.292,0.734 3.54,0.734c1.249,0 2.415,-0.244 3.501,-0.734c1.085,-0.489 2.035,-1.141 2.849,-1.956c0.814,-0.816 1.465,-1.78 1.953,-2.895c0.489,-1.114 0.733,-2.296 0.733,-3.547l0,-32.205c0,-1.249 -0.244,-2.418 -0.733,-3.505c-0.488,-1.087 -1.139,-2.038 -1.953,-2.853c-0.814,-0.815 -1.764,-1.468 -2.849,-1.957c-1.086,-0.489 -2.252,-0.734 -3.501,-0.734Z" style="fill-rule:nonzero;"/><path d="M363.935,0.326l2.686,0l0,55.025l-2.686,0l-17.257,-47.537l0,47.537l-2.686,0l0,-55.025l2.686,0l17.257,47.537l0,-47.537Z" style="fill-rule:nonzero;"/><path d="M387.215,26.246c1.357,1.087 2.7,2.215 4.029,3.384c1.33,1.169 2.524,2.446 3.582,3.832c1.058,1.386 1.913,2.935 2.564,4.647c0.651,1.712 0.977,3.655 0.977,5.829c0,1.63 -0.312,3.166 -0.936,4.606c-0.624,1.44 -1.466,2.69 -2.524,3.75c-1.058,1.06 -2.292,1.902 -3.703,2.527c-1.411,0.625 -2.931,0.937 -4.559,0.937c-1.628,0 -3.161,-0.312 -4.599,-0.936c-1.438,-0.624 -2.686,-1.465 -3.744,-2.523c-1.058,-1.058 -1.899,-2.306 -2.524,-3.744c-0.624,-1.439 -0.936,-2.972 -0.936,-4.6l2.687,0c0,1.249 0.244,2.429 0.732,3.541c0.489,1.113 1.14,2.076 1.954,2.89c0.814,0.814 1.777,1.465 2.889,1.954c1.113,0.488 2.293,0.732 3.541,0.732c1.248,0 2.415,-0.244 3.5,-0.732c1.086,-0.489 2.035,-1.14 2.849,-1.954c0.814,-0.814 1.466,-1.777 1.954,-2.89c0.488,-1.112 0.733,-2.292 0.733,-3.541c0,-1.845 -0.285,-3.5 -0.855,-4.965c-0.57,-1.465 -1.33,-2.808 -2.279,-4.029c-0.95,-1.221 -2.035,-2.361 -3.256,-3.419c-1.221,-1.058 -2.483,-2.103 -3.785,-3.134c-1.303,-1.031 -2.592,-2.103 -3.867,-3.215c-1.275,-1.112 -2.415,-2.32 -3.419,-3.622c-1.003,-1.303 -1.817,-2.741 -2.442,-4.314c-0.624,-1.574 -0.936,-3.392 -0.936,-5.454c0,-1.628 0.312,-3.161 0.936,-4.599c0.625,-1.438 1.466,-2.686 2.524,-3.745c1.058,-1.058 2.306,-1.899 3.744,-2.523c1.438,-0.624 2.971,-0.936 4.599,-0.936c1.628,0 3.148,0.303 4.559,0.909c1.411,0.606 2.645,1.433 3.703,2.482c1.058,1.05 1.9,2.293 2.524,3.731c0.624,1.438 0.936,2.971 0.936,4.599l-2.686,0c0,-1.248 -0.245,-2.414 -0.733,-3.5c-0.488,-1.085 -1.14,-2.035 -1.954,-2.849c-0.814,-0.814 -1.763,-1.465 -2.849,-1.953c-1.085,-0.489 -2.252,-0.733 -3.5,-0.733c-1.248,0 -2.428,0.245 -3.541,0.734c-1.112,0.489 -2.075,1.142 -2.889,1.957c-0.814,0.815 -1.465,1.766 -1.954,2.853c-0.488,1.087 -0.732,2.256 -0.732,3.505c0,1.74 0.271,3.275 0.814,4.606c0.542,1.332 1.261,2.569 2.157,3.71c0.895,1.141 1.926,2.215 3.093,3.22c1.167,1.006 2.374,1.997 3.622,2.975Z" style="fill-rule:nonzero;"/></g></svg>