<?xml version="1.0" encoding="UTF-8" standalone="no"?><!DOCTYPE svg PUBLIC "-//W3C//DTD SVG 1.1//EN" "http://www.w3.org/Graphics/SVG/1.1/DTD/svg11.dtd"><svg width="100%" height="100%" viewBox="0 0 30 30" version="1.1" xmlns="http://www.w3.org/2000/svg" xmlns:xlink="http://www.w3.org/1999/xlink" xml:space="preserve" style="fill-rule:evenodd;clip-rule:evenodd;stroke-linejoin:round;stroke-miterlimit:1.41421;"><circle cx="15" cy="15" r="15" style="fill:#f1f1f2;"/><path d="M22.5,9.553c0,-0.274 -0.223,-0.497 -0.497,-0.497l-14.006,0c-0.274,0 -0.497,0.223 -0.497,0.497l0,0.994c0,0.274 0.223,0.497 0.497,0.497l14.006,0c0.274,0 0.497,-0.223 0.497,-0.497l0,-0.994Z"/><path d="M22.5,14.503c0,-0.274 -0.223,-0.497 -0.497,-0.497l-14.006,0c-0.274,0 -0.497,0.223 -0.497,0.497l0,0.994c0,0.274 0.223,0.497 0.497,0.497l14.006,0c0.274,0 0.497,-0.223 0.497,-0.497l0,-0.994Z"/><path d="M22.5,19.453c0,-0.274 -0.223,-0.497 -0.497,-0.497l-14.006,0c-0.274,0 -0.497,0.223 -0.497,0.497l0,0.994c0,0.274 0.223,0.497 0.497,0.497l14.006,0c0.274,0 0.497,-0.223 0.497,-0.497l0,-0.994Z"/></svg>